<svg width="44" height="56" viewBox="0 0 44 56" fill="none" xmlns="http://www.w3.org/2000/svg">
<path d="M10.6667 22.2222V13.5556C10.6667 7.17111 15.8378 2 22.2222 2C28.6067 2 33.7778 7.17111 33.7778 13.5556V22.2222M22.2222 36.6667C22.9884 36.6667 23.7232 36.3623 24.265 35.8205C24.8067 35.2788 25.1111 34.544 25.1111 33.7778C25.1111 33.0116 24.8067 32.2768 24.265 31.735C23.7232 31.1933 22.9884 30.8889 22.2222 30.8889C21.456 30.8889 20.7212 31.1933 20.1795 31.735C19.6377 32.2768 19.3333 33.0116 19.3333 33.7778C19.3333 34.544 19.6377 35.2788 20.1795 35.8205C20.7212 36.3623 21.456 36.6667 22.2222 36.6667ZM22.2222 36.6667V45.3333M6.62222 22.2222H37.8222C40.3644 22.2222 42.4444 24.3022 42.4444 26.8444V47.0667C42.4444 50.88 39.3244 54 35.5111 54H8.93333C5.12 54 2 50.88 2 47.0667V26.8444C2 24.3022 4.08 22.2222 6.62222 22.2222Z" stroke="#A7ADBA" stroke-width="2.6" stroke-miterlimit="10" stroke-linecap="round" stroke-linejoin="round" fill="none"/>
</svg>
